<?xml version="1.0" encoding="utf-8"?>
<!-- Generator: Adobe Illustrator 15.0.0, SVG Export Plug-In . SVG Version: 6.00 Build 0)  -->
<!DOCTYPE svg PUBLIC "-//W3C//DTD SVG 1.1//EN" "http://www.w3.org/Graphics/SVG/1.1/DTD/svg11.dtd">
<svg version="1.1" id="Layer_1" xmlns="http://www.w3.org/2000/svg" xmlns:xlink="http://www.w3.org/1999/xlink" x="0px" y="0px"
	 width="66px" height="66px" viewBox="0 0 66 66" enable-background="new 0 0 66 66" xml:space="preserve">
<circle fill="#63A63E" cx="33" cy="33" r="33"/>
<path fill="#FFFFFF" d="M49.641,21.066c-0.389-0.389-1.025-0.389-1.414,0L29.788,39.504c-0.389,0.389-1.025,0.389-1.414,0
	l-8.14-8.139c-0.389-0.389-1.025-0.389-1.414,0L15.285,34.9c-0.389,0.389-0.389,1.025,0,1.414l13.089,13.09
	c0.389,0.389,1.025,0.389,1.414,0l3.536-3.536c0.389-0.389,1.025-1.025,1.414-1.414l18.438-18.438c0.389-0.389,0.389-1.025,0-1.414
	L49.641,21.066z"/>
</svg>
